# xmcd
#
# Track frame offsets:
#	150
#	28322
#	42385
#	79162
#	100127
#	124092
#	143702
#	156892
#	187675
#	204742
#	223642
#	238867
#
# Disc length: 3464 seconds
# Revision: 4
# Processed by: cddbd v1.5.2PL0 Copyright (c) Steve Scherf et al.
# Submitted via: dBpowerAMP V12.0
#
DISCID=a80d860c
DTITLE=Smokin' Joe Kubek Band, The - Cryin' For The Moon
DYEAR=1995
DGENRE=Blues
TTITLE0=In One Hand (And Out The Other)
TTITLE1=You're my Brand
TTITLE2=You Haven't Hurt me
TTITLE3=Corn Palace
TTITLE4=If It's The Last Thing I do
TTITLE5=One More Song
TTITLE6=Cryin' For The Moon
TTITLE7=Changes Made
TTITLE8=We Had to Wait
TTITLE9=Step on it
TTITLE10=You're so Hard to Understand
TTITLE11=The Life You Save (Could be Mine)
EXTD=
EXTT0=
EXTT1=
EXTT2=
EXTT3=
EXTT4=
EXTT5=
EXTT6=
EXTT7=
EXTT8=
EXTT9=
EXTT10=
EXTT11=
PLAYORDER=
